<?xml version="1.0" encoding="UTF-8"?>
<svg id="Layer_1" data-name="Layer 1" xmlns="http://www.w3.org/2000/svg" viewBox="0 0 60 60">
  <defs>
    <style>
      .cls-1 {
        fill: #fff;
      }

      .cls-1, .cls-2, .cls-3 {
        fill-rule: evenodd;
        stroke-width: 0px;
      }

      .cls-2 {
        fill: #0075a2;
      }

      .cls-3 {
        fill: #f7b538;
      }
    </style>
  </defs>
  <g id="Icon">
    <path class="cls-2" d="M56.119,3.881c-2.487-2.487-5.858-3.881-9.374-3.881H13.256c-3.516,0-6.887,1.395-9.374,3.881C1.395,6.368,0,9.739,0,13.256v33.489c0,3.516,1.395,6.887,3.881,9.374,2.487,2.487,5.858,3.881,9.374,3.881h33.489c3.516,0,6.887-1.395,9.374-3.881,2.487-2.487,3.881-5.858,3.881-9.374V13.256c0-3.516-1.395-6.887-3.881-9.374ZM21.433,35.218c.818.815.818,2.144,0,2.959-.815.818-2.144.818-2.959,0l-6.698-6.698c-.818-.818-.818-2.141,0-2.959l6.698-6.698c.815-.818,2.144-.818,2.959,0,.818.815.818,2.144,0,2.959l-5.217,5.218,5.217,5.218ZM35.336,20.615l-6.698,20.093c-.366,1.096-1.551,1.688-2.649,1.325-1.096-.366-1.688-1.551-1.325-2.649l6.698-20.093c.366-1.096,1.551-1.688,2.649-1.325,1.096.366,1.688,1.551,1.325,2.649ZM48.224,31.48l-6.698,6.698c-.815.818-2.144.818-2.959,0-.818-.815-.818-2.144,0-2.959l5.217-5.218-5.217-5.218c-.818-.815-.818-2.144,0-2.959.815-.818,2.144-.818,2.959,0l6.698,6.698c.818.818.818,2.141,0,2.959Z"/>
    <path class="cls-1" d="M35.336,20.615l-6.698,20.093c-.366,1.096-1.551,1.688-2.649,1.325-1.096-.366-1.688-1.551-1.325-2.649l6.698-20.093c.366-1.096,1.551-1.688,2.649-1.325,1.096.366,1.688,1.551,1.325,2.649Z"/>
    <path class="cls-3" d="M48.224,31.48l-6.698,6.698c-.815.818-2.144.818-2.959,0-.818-.815-.818-2.144,0-2.959l5.217-5.218-5.217-5.218c-.818-.815-.818-2.144,0-2.959.815-.818,2.144-.818,2.959,0l6.698,6.698c.818.818.818,2.141,0,2.959Z"/>
    <path class="cls-3" d="M21.433,35.218c.818.815.818,2.144,0,2.959-.815.818-2.144.818-2.959,0l-6.698-6.698c-.818-.818-.818-2.141,0-2.959l6.698-6.698c.815-.818,2.144-.818,2.959,0,.818.815.818,2.144,0,2.959l-5.217,5.218,5.217,5.218Z"/>
  </g>
</svg>