<?xml version="1.0" encoding="UTF-8"?>
<svg id="Discussion" xmlns="http://www.w3.org/2000/svg" viewBox="0 0 60 60">
  <defs>
    <style>
      .cls-1 {
        fill: #0075a2;
      }

      .cls-1, .cls-2, .cls-3 {
        stroke-width: 0px;
      }

      .cls-2 {
        fill: #f7b538;
      }

      .cls-3 {
        fill: #fff;
      }
    </style>
  </defs>
  <path class="cls-1" d="M52,22.5h-24c-4.41,0-8,3.366-8,7.5v16.875c0,4.134,3.59,7.5,8,7.5h13.33l7.47,5.25c.35.244.78.375,1.2.375.3,0,.61-.066.89-.197.68-.319,1.11-.966,1.11-1.678v-3.75c4.41,0,8-3.366,8-7.5v-16.875c0-4.134-3.59-7.5-8-7.5Z"/>
  <path class="cls-2" d="M32,0H8C3.59,0,0,3.366,0,7.5v16.875c0,4.134,3.59,7.5,8,7.5v3.75c0,.712.43,1.359,1.11,1.678.28.131.59.197.89.197.42,0,.85-.131,1.2-.375l7.47-5.25h13.33c4.41,0,8-3.366,8-7.5V7.5c0-4.134-3.59-7.5-8-7.5Z"/>
  <g>
    <path class="cls-3" d="M20.577,13.5h-8.654c-1.058,0-1.923-.787-1.923-1.75s.865-1.75,1.923-1.75h8.654c1.058,0,1.923.787,1.923,1.75s-.865,1.75-1.923,1.75Z"/>
    <path class="cls-3" d="M28.182,21.875H11.818c-1,0-1.818-.787-1.818-1.75s.818-1.75,1.818-1.75h16.364c1,0,1.818.787,1.818,1.75s-.818,1.75-1.818,1.75Z"/>
  </g>
</svg>