<?xml version="1.0" encoding="UTF-8"?>
<svg id="OBJECT" xmlns="http://www.w3.org/2000/svg" viewBox="0 0 60 60">
  <defs>
    <style>
      .cls-1 {
        fill: #0075a2;
      }

      .cls-1, .cls-2, .cls-3, .cls-4 {
        stroke-width: 0px;
      }

      .cls-2 {
        fill: #f7b538;
      }

      .cls-3 {
        fill: #101820;
      }

      .cls-4 {
        fill: #fff;
      }
    </style>
  </defs>
  <path class="cls-3" d="M54,0H6C2.7,0,0,2.7,0,6v6h60v-6c0-3.3-2.7-6-6-6ZM9,8h-1c-1.1,0-2-.9-2-2s.9-2,2-2h1c1.1,0,2,.9,2,2s-.9,2-2,2ZM16,8h-1c-1.1,0-2-.9-2-2s.9-2,2-2h1c1.1,0,2,.9,2,2s-.9,2-2,2ZM23,8h-1c-1.1,0-2-.9-2-2s.9-2,2-2h1c1.1,0,2,.9,2,2s-.9,2-2,2Z"/>
  <path class="cls-4" d="M11,6c0,1.1-.9,2-2,2h-1c-1.1,0-2-.9-2-2s.9-2,2-2h1c1.1,0,2,.9,2,2Z"/>
  <path class="cls-4" d="M18,6c0,1.1-.9,2-2,2h-1c-1.1,0-2-.9-2-2s.9-2,2-2h1c1.1,0,2,.9,2,2Z"/>
  <path class="cls-4" d="M25,6c0,1.1-.9,2-2,2h-1c-1.1,0-2-.9-2-2s.9-2,2-2h1c1.1,0,2,.9,2,2Z"/>
  <path class="cls-1" d="M0,16v38c0,3.3,2.7,6,6,6h22V16H0ZM7.56,23.9l.02.02c.78-.78,2.04-.78,2.82,0l2.42,2.42,4.76-4.76c.78-.78,2.04-.78,2.82,0s.78,2.04,0,2.82l-6.16,6.16c-.4.4-.9.58-1.42.58s-1.02-.2-1.42-.58l-3.84-3.84c-.78-.78-.78-2.04,0-2.82ZM21,55H7c-1.1,0-2-.9-2-2s.9-2,2-2h14c1.1,0,2,.9,2,2s-.9,2-2,2ZM21,47H7c-1.1,0-2-.9-2-2s.9-2,2-2h14c1.1,0,2,.9,2,2s-.9,2-2,2ZM21,39H7c-1.1,0-2-.9-2-2s.9-2,2-2h14c1.1,0,2,.9,2,2s-.9,2-2,2Z"/>
  <path class="cls-4" d="M20.4,24.4l-6.16,6.16c-.4.4-.9.58-1.42.58s-1.02-.2-1.42-.58l-3.84-3.84c-.78-.78-.78-2.04,0-2.82l.02.02c.78-.78,2.04-.78,2.82,0l2.42,2.42,4.76-4.76c.78-.78,2.04-.78,2.82,0s.78,2.04,0,2.82Z"/>
  <path class="cls-4" d="M23,37c0,1.1-.9,2-2,2H7c-1.1,0-2-.9-2-2s.9-2,2-2h14c1.1,0,2,.9,2,2Z"/>
  <path class="cls-4" d="M23,45c0,1.1-.9,2-2,2H7c-1.1,0-2-.9-2-2s.9-2,2-2h14c1.1,0,2,.9,2,2Z"/>
  <path class="cls-4" d="M23,53c0,1.1-.9,2-2,2H7c-1.1,0-2-.9-2-2s.9-2,2-2h14c1.1,0,2,.9,2,2Z"/>
  <path class="cls-2" d="M32,16v44h22c3.3,0,6-2.7,6-6V16h-28ZM41.14,24.42h.04c-.78-.78-.78-2.04,0-2.82.78-.78,2.04-.78,2.82,0l1.98,1.98,1.98-1.98c.78-.78,2.04-.78,2.82,0,.78.78.78,2.04,0,2.82l-1.98,1.98,1.98,1.98c.78.78.78,2.04,0,2.82-.4.4-.9.58-1.42.58s-1.02-.2-1.42-.58l-1.98-1.98-1.98,1.98c-.4.4-.9.58-1.42.58s-1.02-.2-1.42-.58c-.78-.78-.78-2.04,0-2.82l1.98-1.98-1.98-1.98ZM53,55h-14c-1.1,0-2-.9-2-2s.9-2,2-2h14c1.1,0,2,.9,2,2s-.9,2-2,2ZM53,47h-14c-1.1,0-2-.9-2-2s.9-2,2-2h14c1.1,0,2,.9,2,2s-.9,2-2,2ZM53,39h-14c-1.1,0-2-.9-2-2s.9-2,2-2h14c1.1,0,2,.9,2,2s-.9,2-2,2Z"/>
  <path class="cls-4" d="M55,53c0,1.1-.9,2-2,2h-14c-1.1,0-2-.9-2-2s.9-2,2-2h14c1.1,0,2,.9,2,2Z"/>
  <path class="cls-4" d="M55,45c0,1.1-.9,2-2,2h-14c-1.1,0-2-.9-2-2s.9-2,2-2h14c1.1,0,2,.9,2,2Z"/>
  <path class="cls-4" d="M55,37c0,1.1-.9,2-2,2h-14c-1.1,0-2-.9-2-2s.9-2,2-2h14c1.1,0,2,.9,2,2Z"/>
  <path class="cls-4" d="M50.78,28.38c.78.78.78,2.04,0,2.82-.4.4-.9.58-1.42.58s-1.02-.2-1.42-.58l-1.98-1.98-1.98,1.98c-.4.4-.9.58-1.42.58s-1.02-.2-1.42-.58c-.78-.78-.78-2.04,0-2.82l1.98-1.98-1.98-1.98h.04c-.78-.78-.78-2.04,0-2.82.78-.78,2.04-.78,2.82,0l1.98,1.98,1.98-1.98c.78-.78,2.04-.78,2.82,0,.78.78.78,2.04,0,2.82l-1.98,1.98,1.98,1.98Z"/>
</svg>