<?xml version="1.0" encoding="UTF-8"?>
<svg id="Layer_1" data-name="Layer 1" xmlns="http://www.w3.org/2000/svg" viewBox="0 0 80 80">
  <defs>
    <style>
      .cls-1 {
        fill: #0075a2;
      }

      .cls-1, .cls-2, .cls-3, .cls-4 {
        stroke-width: 0px;
      }

      .cls-2 {
        fill: #f7b538;
      }

      .cls-3 {
        fill: #101820;
      }

      .cls-4 {
        fill: #fff;
      }
    </style>
  </defs>
  <circle class="cls-4" cx="40" cy="40" r="40"/>
  <g>
    <path class="cls-1" d="M20.515,61.758c0,1.791,1.494,3.242,3.337,3.242h37.14c.833,0,1.508-.656,1.508-1.465v-5.02H23.852c-1.843,0-3.337,1.452-3.337,3.242h0Z"/>
    <path class="cls-3" d="M24.174,55.586V15h-.322c-3.503,0-6.352,2.769-6.352,6.172v40.586c0-3.403,2.849-6.172,6.352-6.172h.322Z"/>
    <path class="cls-2" d="M44.844,24.206c-4.511,0-8.181,3.566-8.181,7.949.411,10.531,15.953,10.528,16.362,0,0-4.383-3.67-7.949-8.181-7.949h0ZM44.844,26.768c.832,0,1.508.656,1.508,1.465-.075,1.941-2.941,1.94-3.015,0,0-.809.675-1.465,1.508-1.465ZM46.352,36.077c-.074,1.942-2.942,1.94-3.015,0v-3.138c.074-1.942,2.942-1.94,3.015,0v3.138Z"/>
    <path class="cls-1" d="M60.992,15H27.189v40.586h35.311V16.465c0-.809-.675-1.465-1.508-1.465ZM54.533,49.31h-19.378c-1.998-.072-1.997-2.858,0-2.93h19.378c1.998.072,1.997,2.858,0,2.93ZM44.844,43.034c-6.174,0-11.196-4.88-11.196-10.879.563-14.412,21.832-14.409,22.393,0,0,5.999-5.023,10.879-11.196,10.879h0Z"/>
  </g>
</svg>