<?xml version="1.0" encoding="UTF-8"?>
<svg id="Layer_1" data-name="Layer 1" xmlns="http://www.w3.org/2000/svg" viewBox="0 0 80 80">
  <defs>
    <style>
      .cls-1 {
        fill: #0075a2;
      }

      .cls-1, .cls-2, .cls-3, .cls-4 {
        stroke-width: 0px;
      }

      .cls-2 {
        fill: #f7b538;
      }

      .cls-3 {
        fill: #101820;
      }

      .cls-4 {
        fill: #fff;
      }
    </style>
  </defs>
  <circle class="cls-4" cx="40" cy="40" r="40"/>
  <g>
    <path class="cls-2" d="M58.068,26.975c.55,0,1.1.049,1.642.131v-6.177c0-1.898-1.55-3.428-3.458-3.428h-26.609c-1.917,0-3.458,1.53-3.458,3.428v31.034c0,1.89,1.542,3.428,3.458,3.428h26.609c1.908,0,3.458-1.538,3.458-3.428v-2.307c-.542.074-1.092.123-1.642.123-3.083,0-5.975-1.178-8.142-3.338-4.492-4.443-4.492-11.684,0-16.126,2.167-2.152,5.059-3.338,8.142-3.338ZM46.059,33.34c0,.851-.7,1.538-1.558,1.538h-9.65c-.858,0-1.558-.687-1.558-1.538s.7-1.546,1.558-1.546h9.65c.858,0,1.558.695,1.558,1.546ZM45.059,39.566c0,.851-.7,1.538-1.558,1.538h-8.65c-.858,0-1.558-.687-1.558-1.538,0-.859.7-1.546,1.558-1.546h8.65c.858,0,1.558.687,1.558,1.546ZM34.842,25.567h4.058c.858,0,1.55.687,1.55,1.538s-.692,1.546-1.55,1.546h-4.058c-.858,0-1.558-.695-1.558-1.546s.7-1.538,1.558-1.538ZM47.41,45.785c0,.851-.7,1.546-1.558,1.546h-11c-.858,0-1.558-.695-1.558-1.546s.7-1.538,1.558-1.538h11c.858,0,1.558.687,1.558,1.538Z"/>
    <path class="cls-4" d="M47.41,45.785c0,.851-.7,1.546-1.558,1.546h-11c-.858,0-1.558-.695-1.558-1.546s.7-1.538,1.558-1.538h11c.858,0,1.558.687,1.558,1.538Z"/>
    <path class="cls-4" d="M45.059,39.566c0,.851-.7,1.538-1.558,1.538h-8.65c-.858,0-1.558-.687-1.558-1.538,0-.859.7-1.546,1.558-1.546h8.65c.858,0,1.558.687,1.558,1.546Z"/>
    <path class="cls-4" d="M46.059,33.34c0,.851-.7,1.538-1.558,1.538h-9.65c-.858,0-1.558-.687-1.558-1.538s.7-1.546,1.558-1.546h9.65c.858,0,1.558.695,1.558,1.546Z"/>
    <path class="cls-4" d="M40.451,27.105c0,.851-.692,1.546-1.55,1.546h-4.058c-.858,0-1.558-.695-1.558-1.546s.7-1.538,1.558-1.538h4.058c.858,0,1.55.687,1.55,1.538Z"/>
    <path class="cls-3" d="M68.544,46.586l-3.55-3.526c2.225-3.24,1.908-7.699-.992-10.571-3.275-3.24-8.6-3.24-11.875,0-3.275,3.248-3.275,8.525,0,11.774,1.633,1.62,3.783,2.43,5.934,2.43,1.658,0,3.308-.491,4.725-1.456l3.558,3.526c.3.303.7.45,1.1.45s.792-.147,1.1-.45c.608-.597.608-1.579,0-2.176ZM61.802,42.078c-2,1.98-5.475,1.98-7.475,0-2.058-2.037-2.058-5.367,0-7.405,1.033-1.023,2.383-1.53,3.742-1.53,1.35,0,2.7.507,3.733,1.53,2.058,2.037,2.058,5.367,0,7.405Z"/>
    <path class="cls-1" d="M52.535,58.475v.589c0,1.906-1.558,3.436-3.467,3.436h-26.609c-1.9,0-3.458-1.53-3.458-3.436v-31.034c0-1.898,1.558-3.428,3.458-3.428h.608v27.36c0,3.592,2.95,6.513,6.575,6.513h22.893Z"/>
  </g>
</svg>