<?xml version="1.0" encoding="UTF-8"?>
<svg id="Bahan_copy_2" data-name="Bahan copy 2" xmlns="http://www.w3.org/2000/svg" viewBox="0 0 80 80">
  <defs>
    <style>
      .cls-1 {
        fill: #0075a2;
      }

      .cls-1, .cls-2, .cls-3, .cls-4 {
        stroke-width: 0px;
      }

      .cls-2 {
        fill: #f7b538;
      }

      .cls-3 {
        fill: #101820;
      }

      .cls-4 {
        fill: #fff;
      }
    </style>
  </defs>
  <circle class="cls-4" cx="40" cy="40" r="40"/>
  <g>
    <path class="cls-3" d="M54.692,59.433v-17.283c-.01-.845-.302-1.62-.795-2.223-.664-.825-1.721-1.217-2.778-1.217h-20.737l-.322-.634-1.289-2.465-.211-.412c-.443-.875-.805-1.61-.805-1.61-.08-.171-.171-.322-.282-.473-.584-.825-1.5-1.368-2.527-1.449v-.02h-6.463c-1.923,0-3.483,1.579-3.483,3.521v26.185c0,1.942,1.56,3.521,3.483,3.521h32.736c1.027,0,1.953-.453,2.597-1.177l.292-.382s.01-.01.01-.02c.05-.07.101-.151.131-.231.01-.01.02-.03.03-.04.01-.02.02-.04.03-.06.04-.07.07-.141.111-.211.05-.121.091-.241.121-.362.111-.423.141-.926.151-1.418.01-.181.01-.362.01-.543v-.302c0-.251-.01-.483-.01-.694ZM31.932,48.005c0,1.006-.805,1.821-1.792,1.821h-8.707c-.987,0-1.792-.815-1.792-1.821v-2.817c0-1.006.805-1.821,1.792-1.821h8.707c.987,0,1.792.815,1.792,1.821v2.817Z"/>
    <path class="cls-3" d="M21.435,45.158h8.7v2.823h-8.7v-2.823Z"/>
    <path class="cls-2" d="M31.574,19.34v17.554c-.141-.131-2.356-4.557-2.356-4.557-.533-1.097-1.601-1.821-2.809-1.921v-9.637c-.01-.754.564-1.388,1.309-1.439h3.855Z"/>
    <path class="cls-2" d="M65,33.117v26.99c0,.946-.755,1.71-1.681,1.71h-7.167v-1.76c.05-.765-.01-1.559.01-2.123h2.486c1.752-.05,3.151-1.509,3.111-3.289v-22.423h2.345c.493,0,.896.392.896.895Z"/>
    <path class="cls-1" d="M58.643,15.125h-23.968c-.755.05-1.339.704-1.309,1.469v20.783h19.297c1.923,0,3.483,1.579,3.493,3.521v15.21h2.486c.765-.04,1.349-.694,1.319-1.469V16.594c.03-.765-.554-1.428-1.319-1.469ZM44.258,19.642h11.949c.503,0,.896.412.896.915s-.393.905-.896.905h-11.949c-.503,0-.906-.402-.906-.905s.403-.915.906-.915ZM37.141,19.642h3.372c.503,0,.906.412.906.915s-.403.905-.906.905h-3.372c-.503,0-.906-.402-.906-.905s.403-.915.906-.915ZM37.141,24.692h11.053c.493,0,.896.402.896.905s-.403.915-.896.915h-11.053c-.503,0-.906-.412-.906-.915s.403-.905.906-.905ZM56.207,31.552h-19.066c-.503,0-.906-.402-.906-.905s.403-.915.906-.915h19.066c.503,0,.906.412.906.915s-.403.905-.906.905ZM56.207,26.513h-4.208c-.493,0-.896-.412-.896-.915s.403-.905.896-.905h4.208c.503,0,.906.402.906.905s-.403.915-.906.915Z"/>
  </g>
</svg>